# Blender 5.0.0
# www.blender.org
o Cube.001
v 0.000000 -0.090480 1.476579
v -0.700000 -0.390301 -0.523421
v 0.000000 0.409871 -0.330447
v 0.700000 -0.390301 -0.523421
vn -0.6859 0.5423 0.4851
vn -0.6489 0.7600 -0.0364
vn -0.9059 0.4230 -0.0206
vn -0.2087 0.0810 -0.9746
vn -0.0000 0.3790 -0.9254
vn 0.2087 0.0811 -0.9746
vn 0.9059 0.4230 -0.0206
vn 0.6489 0.7600 -0.0364
vn 0.6859 0.5423 0.4851
vn -0.2196 -0.9749 -0.0364
vn 0.2196 -0.9749 -0.0364
vn -0.0000 -0.8941 0.4480
vt 0.625000 0.000000
vt 0.625000 0.225878
vt 0.375000 0.250000
vt 0.600878 0.524122
vt 0.375000 0.500000
vt 0.375000 0.750000
vt 0.125000 0.500000
vt 0.125000 0.750000
s 0
f 1/1/1 3/2/2 2/3/3
f 2/3/4 3/4/5 4/5/6
f 4/5/7 3/4/8 1/6/9
f 2/7/10 4/5/11 1/8/12
