# Blender 5.0.0
# www.blender.org
mtllib boid.mtl
o Cube
v 0.000000 1.336454 0.000000
v 1.000000 -0.663546 -0.299821
v 0.000000 -0.470572 0.500351
v -1.000000 -0.663546 -0.299821
vn 0.6353 0.2061 0.7443
vn -0.0000 -0.9721 0.2344
vn -0.6353 0.2061 0.7443
vn -0.0000 0.1483 -0.9889
vt 0.625000 0.000000
vt 0.625000 0.225878
vt 0.375000 0.250000
vt 0.600878 0.524122
vt 0.375000 0.500000
vt 0.375000 0.750000
vt 0.125000 0.500000
vt 0.125000 0.750000
s 0
f 1/1/1 3/2/1 2/3/1
f 2/3/2 3/4/2 4/5/2
f 4/5/3 3/4/3 1/6/3
f 2/7/4 4/5/4 1/8/4
