# Blender 5.0.0
# www.blender.org
o Circle
v -0.015000 0.999619 0.000000
v -0.015000 0.999017 0.024534
v -0.015000 0.997212 0.049009
v -0.015000 0.994208 0.073365
v -0.015000 0.990012 0.097545
v -0.015000 0.984635 0.121490
v -0.015000 0.978090 0.145142
v -0.015000 0.970391 0.168445
v -0.015000 0.961559 0.191342
v -0.015000 0.951614 0.213778
v -0.015000 0.940580 0.235698
v -0.015000 0.928484 0.257051
v -0.015000 0.915354 0.277785
v -0.015000 0.901223 0.297850
v -0.015000 0.886125 0.317197
v -0.015000 0.870095 0.335779
v -0.015000 0.853173 0.353553
v -0.015000 0.835399 0.370476
v -0.015000 0.816816 0.386505
v -0.015000 0.797469 0.401604
v -0.015000 0.777405 0.415735
v -0.015000 0.756671 0.428864
v -0.015000 0.735318 0.440961
v -0.015000 0.713397 0.451995
v -0.015000 0.690961 0.461940
v -0.015000 0.668064 0.470772
v -0.015000 0.644762 0.478470
v -0.015000 0.621110 0.485016
v -0.015000 0.597165 0.490393
v -0.015000 0.572985 0.494588
v -0.015000 0.548628 0.497592
v -0.015000 0.524153 0.499398
v -0.015000 0.499619 0.500000
v -0.015000 0.475086 0.499398
v -0.015000 0.450611 0.497592
v -0.015000 0.426254 0.494588
v -0.015000 0.402074 0.490393
v -0.015000 0.378129 0.485016
v -0.015000 0.354477 0.478470
v -0.015000 0.331174 0.470772
v -0.015000 0.308278 0.461940
v -0.015000 0.285842 0.451995
v -0.015000 0.263921 0.440961
v -0.015000 0.242568 0.428864
v -0.015000 0.221834 0.415735
v -0.015000 0.201770 0.401604
v -0.015000 0.182423 0.386505
v -0.015000 0.163840 0.370476
v -0.015000 0.146066 0.353553
v -0.015000 0.129144 0.335779
v -0.015000 0.113114 0.317197
v -0.015000 0.098016 0.297850
v -0.015000 0.083885 0.277785
v -0.015000 0.070755 0.257051
v -0.015000 0.058659 0.235698
v -0.015000 0.047625 0.213778
v -0.015000 0.037680 0.191342
v -0.015000 0.028847 0.168445
v -0.015000 0.021149 0.145142
v -0.015000 0.014604 0.121490
v -0.015000 0.009227 0.097545
v -0.015000 0.005031 0.073365
v -0.015000 0.002027 0.049009
v -0.015000 0.000222 0.024534
v -0.015000 -0.000381 0.000000
v -0.015000 0.000222 -0.024534
v -0.015000 0.002027 -0.049009
v -0.015000 0.005031 -0.073365
v -0.015000 0.009227 -0.097545
v -0.015000 0.014604 -0.121490
v -0.015000 0.021149 -0.145142
v -0.015000 0.028847 -0.168445
v -0.015000 0.037680 -0.191342
v -0.015000 0.047625 -0.213778
v -0.015000 0.058659 -0.235698
v -0.015000 0.070755 -0.257051
v -0.015000 0.083885 -0.277785
v -0.015000 0.098016 -0.297850
v -0.015000 0.113114 -0.317197
v -0.015000 0.129144 -0.335779
v -0.015000 0.146066 -0.353553
v -0.015000 0.163840 -0.370476
v -0.015000 0.182423 -0.386505
v -0.015000 0.201770 -0.401604
v -0.015000 0.221834 -0.415735
v -0.015000 0.242568 -0.428864
v -0.015000 0.263921 -0.440961
v -0.015000 0.285842 -0.451995
v -0.015000 0.308278 -0.461940
v -0.015000 0.331174 -0.470772
v -0.015000 0.354477 -0.478470
v -0.015000 0.378129 -0.485016
v -0.015000 0.402074 -0.490393
v -0.015000 0.426254 -0.494588
v -0.015000 0.450611 -0.497592
v -0.015000 0.475086 -0.499398
v -0.015000 0.499619 -0.500000
v -0.015000 0.524153 -0.499398
v -0.015000 0.548628 -0.497592
v -0.015000 0.572985 -0.494588
v -0.015000 0.597165 -0.490393
v -0.015000 0.621110 -0.485016
v -0.015000 0.644762 -0.478470
v -0.015000 0.668064 -0.470772
v -0.015000 0.690961 -0.461940
v -0.015000 0.713397 -0.451995
v -0.015000 0.735318 -0.440961
v -0.015000 0.756671 -0.428864
v -0.015000 0.777405 -0.415735
v -0.015000 0.797469 -0.401604
v -0.015000 0.816816 -0.386505
v -0.015000 0.835399 -0.370476
v -0.015000 0.853173 -0.353553
v -0.015000 0.870095 -0.335779
v -0.015000 0.886125 -0.317197
v -0.015000 0.901223 -0.297850
v -0.015000 0.915354 -0.277785
v -0.015000 0.928484 -0.257051
v -0.015000 0.940580 -0.235698
v -0.015000 0.951614 -0.213778
v -0.015000 0.961559 -0.191342
v -0.015000 0.970391 -0.168445
v -0.015000 0.978090 -0.145142
v -0.015000 0.984635 -0.121490
v -0.015000 0.990012 -0.097545
v -0.015000 0.994208 -0.073365
v -0.015000 0.997212 -0.049009
v -0.015000 0.999017 -0.024534
v 0.015000 0.999619 0.000000
v 0.015000 0.999017 0.024534
v 0.015000 0.997212 0.049009
v 0.015000 0.994208 0.073365
v 0.015000 0.990012 0.097545
v 0.015000 0.984635 0.121490
v 0.015000 0.978090 0.145142
v 0.015000 0.970391 0.168445
v 0.015000 0.961559 0.191342
v 0.015000 0.951614 0.213778
v 0.015000 0.940580 0.235698
v 0.015000 0.928484 0.257051
v 0.015000 0.915354 0.277785
v 0.015000 0.901223 0.297850
v 0.015000 0.886125 0.317197
v 0.015000 0.870095 0.335779
v 0.015000 0.853173 0.353553
v 0.015000 0.835399 0.370476
v 0.015000 0.816816 0.386505
v 0.015000 0.797469 0.401604
v 0.015000 0.777405 0.415735
v 0.015000 0.756671 0.428864
v 0.015000 0.735318 0.440961
v 0.015000 0.713397 0.451995
v 0.015000 0.690961 0.461940
v 0.015000 0.668064 0.470772
v 0.015000 0.644762 0.478470
v 0.015000 0.621110 0.485016
v 0.015000 0.597165 0.490393
v 0.015000 0.572985 0.494588
v 0.015000 0.548628 0.497592
v 0.015000 0.524153 0.499398
v 0.015000 0.499619 0.500000
v 0.015000 0.475086 0.499398
v 0.015000 0.450611 0.497592
v 0.015000 0.426254 0.494588
v 0.015000 0.402074 0.490393
v 0.015000 0.378129 0.485016
v 0.015000 0.354477 0.478470
v 0.015000 0.331174 0.470772
v 0.015000 0.308278 0.461940
v 0.015000 0.285842 0.451995
v 0.015000 0.263921 0.440961
v 0.015000 0.242568 0.428864
v 0.015000 0.221834 0.415735
v 0.015000 0.201770 0.401604
v 0.015000 0.182423 0.386505
v 0.015000 0.163840 0.370476
v 0.015000 0.146066 0.353553
v 0.015000 0.129144 0.335779
v 0.015000 0.113114 0.317197
v 0.015000 0.098016 0.297850
v 0.015000 0.083885 0.277785
v 0.015000 0.070755 0.257051
v 0.015000 0.058659 0.235698
v 0.015000 0.047625 0.213778
v 0.015000 0.037680 0.191342
v 0.015000 0.028847 0.168445
v 0.015000 0.021149 0.145142
v 0.015000 0.014604 0.121490
v 0.015000 0.009227 0.097545
v 0.015000 0.005031 0.073365
v 0.015000 0.002027 0.049009
v 0.015000 0.000222 0.024534
v 0.015000 -0.000381 0.000000
v 0.015000 0.000222 -0.024534
v 0.015000 0.002027 -0.049009
v 0.015000 0.005031 -0.073365
v 0.015000 0.009227 -0.097545
v 0.015000 0.014604 -0.121490
v 0.015000 0.021149 -0.145142
v 0.015000 0.028847 -0.168445
v 0.015000 0.037680 -0.191342
v 0.015000 0.047625 -0.213778
v 0.015000 0.058659 -0.235698
v 0.015000 0.070755 -0.257051
v 0.015000 0.083885 -0.277785
v 0.015000 0.098016 -0.297850
v 0.015000 0.113114 -0.317197
v 0.015000 0.129144 -0.335779
v 0.015000 0.146066 -0.353553
v 0.015000 0.163840 -0.370476
v 0.015000 0.182423 -0.386505
v 0.015000 0.201770 -0.401604
v 0.015000 0.221834 -0.415735
v 0.015000 0.242568 -0.428864
v 0.015000 0.263921 -0.440961
v 0.015000 0.285842 -0.451995
v 0.015000 0.308278 -0.461940
v 0.015000 0.331174 -0.470772
v 0.015000 0.354477 -0.478470
v 0.015000 0.378129 -0.485016
v 0.015000 0.402074 -0.490393
v 0.015000 0.426254 -0.494588
v 0.015000 0.450611 -0.497592
v 0.015000 0.475086 -0.499398
v 0.015000 0.499619 -0.500000
v 0.015000 0.524153 -0.499398
v 0.015000 0.548628 -0.497592
v 0.015000 0.572985 -0.494588
v 0.015000 0.597165 -0.490393
v 0.015000 0.621110 -0.485016
v 0.015000 0.644762 -0.478470
v 0.015000 0.668064 -0.470772
v 0.015000 0.690961 -0.461940
v 0.015000 0.713397 -0.451995
v 0.015000 0.735318 -0.440961
v 0.015000 0.756671 -0.428864
v 0.015000 0.777405 -0.415735
v 0.015000 0.797469 -0.401604
v 0.015000 0.816816 -0.386505
v 0.015000 0.835399 -0.370476
v 0.015000 0.853173 -0.353553
v 0.015000 0.870095 -0.335779
v 0.015000 0.886125 -0.317197
v 0.015000 0.901223 -0.297850
v 0.015000 0.915354 -0.277785
v 0.015000 0.928484 -0.257051
v 0.015000 0.940580 -0.235698
v 0.015000 0.951614 -0.213778
v 0.015000 0.961559 -0.191342
v 0.015000 0.970391 -0.168445
v 0.015000 0.978090 -0.145142
v 0.015000 0.984635 -0.121490
v 0.015000 0.990012 -0.097545
v 0.015000 0.994208 -0.073365
v 0.015000 0.997212 -0.049009
v 0.015000 0.999017 -0.024534
vn -0.0000 -1.0000 -0.0000
vn -0.0000 -0.9988 -0.0491
vn -0.0000 -0.9952 -0.0980
vn -0.0000 -0.9892 -0.1467
vn -0.0000 -0.9808 -0.1951
vn -0.0000 -0.9700 -0.2430
vn -0.0000 -0.9569 -0.2903
vn -0.0000 -0.9415 -0.3369
vn -0.0000 -0.9239 -0.3827
vn -0.0000 -0.9040 -0.4276
vn -0.0000 -0.8819 -0.4714
vn -0.0000 -0.8577 -0.5141
vn -0.0000 -0.8315 -0.5556
vn -0.0000 -0.8032 -0.5957
vn -0.0000 -0.7730 -0.6344
vn -0.0000 -0.7410 -0.6716
vn -0.0000 -0.7071 -0.7071
vn -0.0000 -0.6716 -0.7410
vn -0.0000 -0.6344 -0.7730
vn -0.0000 -0.5957 -0.8032
vn -0.0000 -0.5556 -0.8315
vn -0.0000 -0.5141 -0.8577
vn -0.0000 -0.4714 -0.8819
vn -0.0000 -0.4276 -0.9040
vn -0.0000 -0.3827 -0.9239
vn -0.0000 -0.3369 -0.9415
vn -0.0000 -0.2903 -0.9569
vn -0.0000 -0.2430 -0.9700
vn -0.0000 -0.1951 -0.9808
vn -0.0000 -0.1467 -0.9892
vn -0.0000 -0.0980 -0.9952
vn -0.0000 -0.0491 -0.9988
vn -0.0000 -0.0000 -1.0000
vn -0.0000 0.0491 -0.9988
vn -0.0000 0.0980 -0.9952
vn -0.0000 0.1467 -0.9892
vn -0.0000 0.1951 -0.9808
vn -0.0000 0.2430 -0.9700
vn -0.0000 0.2903 -0.9569
vn -0.0000 0.3369 -0.9415
vn -0.0000 0.3827 -0.9239
vn -0.0000 0.4276 -0.9040
vn -0.0000 0.4714 -0.8819
vn -0.0000 0.5141 -0.8577
vn -0.0000 0.5556 -0.8315
vn -0.0000 0.5957 -0.8032
vn -0.0000 0.6344 -0.7730
vn -0.0000 0.6716 -0.7410
vn -0.0000 0.7071 -0.7071
vn -0.0000 0.7410 -0.6716
vn -0.0000 0.7730 -0.6344
vn -0.0000 0.8032 -0.5957
vn -0.0000 0.8315 -0.5556
vn -0.0000 0.8577 -0.5141
vn -0.0000 0.8819 -0.4714
vn -0.0000 0.9040 -0.4276
vn -0.0000 0.9239 -0.3827
vn -0.0000 0.9415 -0.3369
vn -0.0000 0.9569 -0.2903
vn -0.0000 0.9700 -0.2430
vn -0.0000 0.9808 -0.1951
vn -0.0000 0.9892 -0.1467
vn -0.0000 0.9952 -0.0980
vn -0.0000 0.9988 -0.0491
vn -0.0000 1.0000 -0.0000
vn -0.0000 0.9988 0.0491
vn -0.0000 0.9952 0.0980
vn -0.0000 0.9892 0.1467
vn -0.0000 0.9808 0.1951
vn -0.0000 0.9700 0.2430
vn -0.0000 0.9569 0.2903
vn -0.0000 0.9415 0.3369
vn -0.0000 0.9239 0.3827
vn -0.0000 0.9040 0.4276
vn -0.0000 0.8819 0.4714
vn -0.0000 0.8577 0.5141
vn -0.0000 0.8315 0.5556
vn -0.0000 0.8032 0.5957
vn -0.0000 0.7730 0.6344
vn -0.0000 0.7410 0.6716
vn -0.0000 0.7071 0.7071
vn -0.0000 0.6716 0.7410
vn -0.0000 0.6344 0.7730
vn -0.0000 0.5957 0.8032
vn -0.0000 0.5556 0.8315
vn -0.0000 0.5141 0.8577
vn -0.0000 0.4714 0.8819
vn -0.0000 0.4276 0.9040
vn -0.0000 0.3827 0.9239
vn -0.0000 0.3369 0.9415
vn -0.0000 0.2903 0.9569
vn -0.0000 0.2430 0.9700
vn -0.0000 0.1951 0.9808
vn -0.0000 0.1467 0.9892
vn -0.0000 0.0980 0.9952
vn -0.0000 0.0491 0.9988
vn -0.0000 -0.0000 1.0000
vn -0.0000 -0.0491 0.9988
vn -0.0000 -0.0980 0.9952
vn -0.0000 -0.1467 0.9892
vn -0.0000 -0.1951 0.9808
vn -0.0000 -0.2430 0.9700
vn -0.0000 -0.2903 0.9569
vn -0.0000 -0.3369 0.9415
vn -0.0000 -0.3827 0.9239
vn -0.0000 -0.4276 0.9040
vn -0.0000 -0.4714 0.8819
vn -0.0000 -0.5141 0.8577
vn -0.0000 -0.5556 0.8315
vn -0.0000 -0.5957 0.8032
vn -0.0000 -0.6344 0.7730
vn -0.0000 -0.6716 0.7410
vn -0.0000 -0.7071 0.7071
vn -0.0000 -0.7410 0.6716
vn -0.0000 -0.7730 0.6344
vn -0.0000 -0.8032 0.5957
vn -0.0000 -0.8315 0.5556
vn -0.0000 -0.8577 0.5141
vn -0.0000 -0.8819 0.4714
vn -0.0000 -0.9040 0.4276
vn -0.0000 -0.9239 0.3827
vn -0.0000 -0.9415 0.3369
vn -0.0000 -0.9569 0.2903
vn -0.0000 -0.9700 0.2430
vn -0.0000 -0.9808 0.1951
vn -0.0000 -0.9892 0.1467
vn -0.0000 -0.9952 0.0980
vn -0.0000 -0.9988 0.0491
vt 0.999701 90.682907
vt 0.999701 91.499855
vt 0.001030 91.499855
vt 0.001029 90.682907
vt 0.999698 27.777456
vt 0.999698 28.594402
vt 0.001027 28.594402
vt 0.001027 27.777456
vt 0.999701 89.865952
vt 0.001029 89.865952
vt 0.999699 26.960497
vt 0.001027 26.960497
vt 0.999701 89.048996
vt 0.001029 89.048996
vt 0.999699 26.143545
vt 0.001028 26.143543
vt 0.999701 88.232048
vt 0.001029 88.232048
vt 0.999699 25.326590
vt 0.001028 25.326586
vt 0.999700 87.415085
vt 0.001029 87.415085
vt 0.999700 24.509638
vt 0.001028 24.509636
vt 0.999700 86.598129
vt 0.001029 86.598129
vt 0.999700 23.692682
vt 0.001029 23.692682
vt 0.999700 85.781174
vt 0.001028 85.781174
vt 0.999700 22.875729
vt 0.001030 22.875729
vt 0.999700 84.964226
vt 0.001028 84.964218
vt 0.999701 22.058775
vt 0.001030 22.058771
vt 0.999699 84.147270
vt 0.001028 84.147270
vt 0.999701 21.241823
vt 0.001030 21.241821
vt 0.999699 83.330315
vt 0.001028 83.330315
vt 0.999702 20.424864
vt 0.001031 20.424864
vt 0.999699 82.513367
vt 0.001028 82.513367
vt 0.999702 19.607914
vt 0.001031 19.607912
vt 0.999699 81.696404
vt 0.001028 81.696404
vt 0.999703 18.790958
vt 0.001031 18.790955
vt 0.999698 80.879448
vt 0.001027 80.879448
vt 0.999703 17.974005
vt 0.001032 17.974005
vt 0.999699 80.062492
vt 0.001027 80.062492
vt 0.999704 17.157051
vt 0.001032 17.157051
vt 0.999698 79.245544
vt 0.001027 79.245544
vt 0.999704 16.340097
vt 0.001033 16.340097
vt 0.999698 78.428589
vt 0.001027 78.428589
vt 0.999704 15.523144
vt 0.001033 15.523144
vt 0.999698 77.611641
vt 0.001027 77.611641
vt 0.999705 14.706189
vt 0.001033 14.706185
vt 0.999698 76.794685
vt 0.001026 76.794685
vt 0.999705 13.889235
vt 0.001034 13.889233
vt 0.999697 75.977730
vt 0.001026 75.977730
vt 0.999705 13.072282
vt 0.001034 13.072282
vt 0.999697 75.160774
vt 0.001026 75.160774
vt 0.999706 12.255328
vt 0.001034 12.255328
vt 0.999697 74.343819
vt 0.001026 74.343819
vt 0.999706 11.438374
vt 0.001035 11.438374
vt 0.999697 73.526863
vt 0.001025 73.526863
vt 0.999707 10.621420
vt 0.001035 10.621419
vt 0.999697 72.709908
vt 0.001025 72.709908
vt 0.999707 9.804466
vt 0.001036 9.804466
vt 0.999693 51.469109
vt 0.999693 52.286064
vt 0.001022 52.286064
vt 0.001023 51.469109
vt 0.999696 71.892960
vt 0.001025 71.892960
vt 0.999707 8.987513
vt 0.001037 8.987509
vt 0.999693 50.652161
vt 0.001023 50.652161
vt 0.999696 71.076004
vt 0.001025 71.076004
vt 0.999708 8.170558
vt 0.001036 8.170558
vt 0.999693 49.835201
vt 0.001022 49.835201
vt 0.999696 70.259048
vt 0.001025 70.259048
vt 0.999708 7.353605
vt 0.001037 7.353601
vt 0.999693 49.018246
vt 0.001022 49.018246
vt 0.999696 69.442101
vt 0.001025 69.442101
vt 0.999708 6.536650
vt 0.001038 6.536650
vt 0.999693 48.201294
vt 0.001022 48.201290
vt 0.999696 68.625137
vt 0.001024 68.625137
vt 0.999709 5.719697
vt 0.001038 5.719697
vt 0.999693 47.384338
vt 0.001023 47.384338
vt 0.999696 67.808182
vt 0.001024 67.808182
vt 0.999709 4.902740
vt 0.001038 4.902740
vt 0.999693 46.567387
vt 0.001022 46.567387
vt 0.999695 66.991234
vt 0.001024 66.991234
vt 0.999710 4.085789
vt 0.001039 4.085789
vt 0.999694 45.750431
vt 0.001022 45.750431
vt 0.999695 66.174286
vt 0.001024 66.174286
vt 0.999710 3.268835
vt 0.001039 3.268835
vt 0.999694 44.933479
vt 0.001023 44.933479
vt 0.999695 65.357323
vt 0.001024 65.357323
vt 0.999710 2.451881
vt 0.001039 2.451881
vt 0.999694 44.116528
vt 0.001022 44.116520
vt 0.999695 64.540367
vt 0.001024 64.540367
vt 0.999710 1.634927
vt 0.001040 1.634927
vt 0.999694 43.299568
vt 0.001023 43.299568
vt 0.999695 63.723419
vt 0.001024 63.723419
vt 0.999710 0.817973
vt 0.001040 0.817973
vt 0.999694 42.482620
vt 0.001023 42.482620
vt 0.999695 62.906464
vt 0.001024 62.906464
vt 0.999711 0.001019
vt 0.001040 0.001019
vt 0.999694 41.665665
vt 0.001023 41.665665
vt 0.999695 62.089512
vt 0.001023 62.089512
vt 0.999703 103.754173
vt 0.999703 104.571121
vt 0.001031 104.571121
vt 0.001031 103.754173
vt 0.999695 40.848709
vt 0.001024 40.848709
vt 0.999695 61.272556
vt 0.001023 61.272556
vt 0.999703 102.937218
vt 0.001031 102.937218
vt 0.999695 40.031757
vt 0.001024 40.031757
vt 0.999694 60.455605
vt 0.001023 60.455605
vt 0.999703 102.120270
vt 0.001031 102.120270
vt 0.999695 39.214806
vt 0.001024 39.214806
vt 0.999694 59.638641
vt 0.001023 59.638641
vt 0.999703 101.303299
vt 0.001031 101.303299
vt 0.999695 38.397854
vt 0.001024 38.397850
vt 0.999694 58.821693
vt 0.001023 58.821693
vt 0.999703 100.486343
vt 0.001031 100.486343
vt 0.999695 37.580898
vt 0.001024 37.580898
vt 0.999694 58.004742
vt 0.001023 58.004742
vt 0.999703 99.669395
vt 0.001031 99.669395
vt 0.999696 36.763943
vt 0.001025 36.763943
vt 0.999694 57.187786
vt 0.001023 57.187786
vt 0.999703 98.852440
vt 0.001031 98.852440
vt 0.999696 35.946991
vt 0.001025 35.946991
vt 0.999694 56.370834
vt 0.001022 56.370834
vt 0.999702 98.035492
vt 0.001031 98.035492
vt 0.999696 35.130032
vt 0.001026 35.130032
vt 0.999693 55.553879
vt 0.001022 55.553879
vt 0.999702 97.218536
vt 0.001031 97.218536
vt 0.999696 34.313084
vt 0.001026 34.313084
vt 0.999693 54.736927
vt 0.001022 54.736927
vt 0.999702 96.401581
vt 0.001030 96.401581
vt 0.999697 33.496124
vt 0.001025 33.496124
vt 0.999693 53.919968
vt 0.001023 53.919968
vt 0.999702 95.584633
vt 0.001031 95.584633
vt 0.999697 32.679173
vt 0.001026 32.679173
vt 0.999693 53.103020
vt 0.001023 53.103020
vt 0.999702 94.767662
vt 0.001030 94.767662
vt 0.999697 31.862223
vt 0.001026 31.862223
vt 0.999702 93.950714
vt 0.001030 93.950714
vt 0.999697 31.045263
vt 0.001026 31.045263
vt 0.999701 93.133766
vt 0.001030 93.133766
vt 0.999698 30.228313
vt 0.001027 30.228313
vt 0.999701 92.316811
vt 0.001030 92.316811
vt 0.999698 29.411358
vt 0.001026 29.411358
s 1
f 82/1/82 81/2/81 209/3/81 210/4/82
f 31/5/31 30/6/30 158/7/30 159/8/31
f 83/9/83 82/1/82 210/4/82 211/10/83
f 32/11/32 31/5/31 159/8/31 160/12/32
f 84/13/84 83/9/83 211/10/83 212/14/84
f 33/15/33 32/11/32 160/12/32 161/16/33
f 85/17/85 84/13/84 212/14/84 213/18/85
f 34/19/34 33/15/33 161/16/33 162/20/34
f 86/21/86 85/17/85 213/18/85 214/22/86
f 35/23/35 34/19/34 162/20/34 163/24/35
f 87/25/87 86/21/86 214/22/86 215/26/87
f 36/27/36 35/23/35 163/24/35 164/28/36
f 88/29/88 87/25/87 215/26/87 216/30/88
f 37/31/37 36/27/36 164/28/36 165/32/37
f 89/33/89 88/29/88 216/30/88 217/34/89
f 38/35/38 37/31/37 165/32/37 166/36/38
f 90/37/90 89/33/89 217/34/89 218/38/90
f 39/39/39 38/35/38 166/36/38 167/40/39
f 91/41/91 90/37/90 218/38/90 219/42/91
f 40/43/40 39/39/39 167/40/39 168/44/40
f 92/45/92 91/41/91 219/42/91 220/46/92
f 41/47/41 40/43/40 168/44/40 169/48/41
f 93/49/93 92/45/92 220/46/92 221/50/93
f 42/51/42 41/47/41 169/48/41 170/52/42
f 94/53/94 93/49/93 221/50/93 222/54/94
f 43/55/43 42/51/42 170/52/42 171/56/43
f 95/57/95 94/53/94 222/54/94 223/58/95
f 44/59/44 43/55/43 171/56/43 172/60/44
f 96/61/96 95/57/95 223/58/95 224/62/96
f 45/63/45 44/59/44 172/60/44 173/64/45
f 97/65/97 96/61/96 224/62/96 225/66/97
f 46/67/46 45/63/45 173/64/45 174/68/46
f 98/69/98 97/65/97 225/66/97 226/70/98
f 47/71/47 46/67/46 174/68/46 175/72/47
f 99/73/99 98/69/98 226/70/98 227/74/99
f 48/75/48 47/71/47 175/72/47 176/76/48
f 100/77/100 99/73/99 227/74/99 228/78/100
f 49/79/49 48/75/48 176/76/48 177/80/49
f 101/81/101 100/77/100 228/78/100 229/82/101
f 50/83/50 49/79/49 177/80/49 178/84/50
f 102/85/102 101/81/101 229/82/101 230/86/102
f 51/87/51 50/83/50 178/84/50 179/88/51
f 103/89/103 102/85/102 230/86/102 231/90/103
f 52/91/52 51/87/51 179/88/51 180/92/52
f 104/93/104 103/89/103 231/90/103 232/94/104
f 53/95/53 52/91/52 180/92/52 181/96/53
f 2/97/2 1/98/1 129/99/1 130/100/2
f 105/101/105 104/93/104 232/94/104 233/102/105
f 54/103/54 53/95/53 181/96/53 182/104/54
f 3/105/3 2/97/2 130/100/2 131/106/3
f 106/107/106 105/101/105 233/102/105 234/108/106
f 55/109/55 54/103/54 182/104/54 183/110/55
f 4/111/4 3/105/3 131/106/3 132/112/4
f 107/113/107 106/107/106 234/108/106 235/114/107
f 56/115/56 55/109/55 183/110/55 184/116/56
f 5/117/5 4/111/4 132/112/4 133/118/5
f 108/119/108 107/113/107 235/114/107 236/120/108
f 57/121/57 56/115/56 184/116/56 185/122/57
f 6/123/6 5/117/5 133/118/5 134/124/6
f 109/125/109 108/119/108 236/120/108 237/126/109
f 58/127/58 57/121/57 185/122/57 186/128/58
f 7/129/7 6/123/6 134/124/6 135/130/7
f 110/131/110 109/125/109 237/126/109 238/132/110
f 59/133/59 58/127/58 186/128/58 187/134/59
f 8/135/8 7/129/7 135/130/7 136/136/8
f 111/137/111 110/131/110 238/132/110 239/138/111
f 60/139/60 59/133/59 187/134/59 188/140/60
f 9/141/9 8/135/8 136/136/8 137/142/9
f 112/143/112 111/137/111 239/138/111 240/144/112
f 61/145/61 60/139/60 188/140/60 189/146/61
f 10/147/10 9/141/9 137/142/9 138/148/10
f 113/149/113 112/143/112 240/144/112 241/150/113
f 62/151/62 61/145/61 189/146/61 190/152/62
f 11/153/11 10/147/10 138/148/10 139/154/11
f 114/155/114 113/149/113 241/150/113 242/156/114
f 63/157/63 62/151/62 190/152/62 191/158/63
f 12/159/12 11/153/11 139/154/11 140/160/12
f 115/161/115 114/155/114 242/156/114 243/162/115
f 64/163/64 63/157/63 191/158/63 192/164/64
f 13/165/13 12/159/12 140/160/12 141/166/13
f 116/167/116 115/161/115 243/162/115 244/168/116
f 65/169/65 64/163/64 192/164/64 193/170/65
f 14/171/14 13/165/13 141/166/13 142/172/14
f 117/173/117 116/167/116 244/168/116 245/174/117
f 66/175/66 65/176/65 193/177/65 194/178/66
f 15/179/15 14/171/14 142/172/14 143/180/15
f 118/181/118 117/173/117 245/174/117 246/182/118
f 67/183/67 66/175/66 194/178/66 195/184/67
f 16/185/16 15/179/15 143/180/15 144/186/16
f 119/187/119 118/181/118 246/182/118 247/188/119
f 68/189/68 67/183/67 195/184/67 196/190/68
f 17/191/17 16/185/16 144/186/16 145/192/17
f 120/193/120 119/187/119 247/188/119 248/194/120
f 69/195/69 68/189/68 196/190/68 197/196/69
f 18/197/18 17/191/17 145/192/17 146/198/18
f 121/199/121 120/193/120 248/194/120 249/200/121
f 70/201/70 69/195/69 197/196/69 198/202/70
f 19/203/19 18/197/18 146/198/18 147/204/19
f 122/205/122 121/199/121 249/200/121 250/206/122
f 71/207/71 70/201/70 198/202/70 199/208/71
f 20/209/20 19/203/19 147/204/19 148/210/20
f 123/211/123 122/205/122 250/206/122 251/212/123
f 72/213/72 71/207/71 199/208/71 200/214/72
f 21/215/21 20/209/20 148/210/20 149/216/21
f 124/217/124 123/211/123 251/212/123 252/218/124
f 73/219/73 72/213/72 200/214/72 201/220/73
f 22/221/22 21/215/21 149/216/21 150/222/22
f 125/223/125 124/217/124 252/218/124 253/224/125
f 74/225/74 73/219/73 201/220/73 202/226/74
f 23/227/23 22/221/22 150/222/22 151/228/23
f 126/229/126 125/223/125 253/224/125 254/230/126
f 75/231/75 74/225/74 202/226/74 203/232/75
f 24/233/24 23/227/23 151/228/23 152/234/24
f 127/235/127 126/229/126 254/230/126 255/236/127
f 76/237/76 75/231/75 203/232/75 204/238/76
f 25/239/25 24/233/24 152/234/24 153/240/25
f 128/241/128 127/235/127 255/236/127 256/242/128
f 77/243/77 76/237/76 204/238/76 205/244/77
f 26/245/26 25/239/25 153/240/25 154/246/26
f 1/98/1 128/241/128 256/242/128 129/99/1
f 78/247/78 77/243/77 205/244/77 206/248/78
f 27/249/27 26/245/26 154/246/26 155/250/27
f 79/251/79 78/247/78 206/248/78 207/252/79
f 28/253/28 27/249/27 155/250/27 156/254/28
f 80/255/80 79/251/79 207/252/79 208/256/80
f 29/257/29 28/253/28 156/254/28 157/258/29
f 81/2/81 80/255/80 208/256/80 209/3/81
f 30/6/30 29/257/29 157/258/29 158/7/30
